<svg width="282" height="103" viewBox="0 0 282 103" fill="none" xmlns="http://www.w3.org/2000/svg">
<g clip-path="url(#clip0_337_4858)">
<path d="M281.925 18.0504L282 17.8805L219.791 31.1602L202.485 34.8506C195.285 47.7339 184.174 58.1255 170.789 64.402L148.774 17.0027L141 0.268555L133.226 17.0027L111.211 64.4114C97.8164 58.1255 86.715 47.7339 79.5146 34.8506L62.2186 31.1602L0 17.8805L0.0846 18.0692C4.6812 28.0927 13.7992 35.2942 24.5528 37.5877L70.6786 47.4319C71.5434 48.7344 72.4552 50.018 73.3952 51.2733L24.3272 55.5866L24.4494 55.7282C31.6404 63.9773 42.3846 68.2151 53.2698 67.2524L85.5964 64.4114C86.6868 65.3553 87.8054 66.2802 88.9428 67.1769L62.9236 87.5919L63.0552 87.6675C70.9136 92.2734 80.793 91.5277 87.9652 85.9025L101.454 75.3221C102.704 75.9828 103.973 76.6246 105.261 77.2287L94.0094 101.457L94.141 101.504C101.821 103.958 110.13 100.239 113.533 92.8963L118.534 82.1272C125.687 84.0998 133.226 85.1569 141 85.1569C148.774 85.1569 156.322 84.0998 163.475 82.1272L168.476 92.8963C171.879 100.23 180.189 103.958 187.868 101.504L188 101.457L176.748 77.2287C178.036 76.6246 179.305 75.9828 180.565 75.3127L194.054 85.8931C201.226 91.5183 211.105 92.2639 218.964 87.658L219.095 87.5825L193.067 67.1674C194.204 66.2802 195.323 65.3553 196.413 64.402L228.749 67.2429C239.625 68.1962 250.36 63.9678 257.56 55.7282L257.692 55.5771L208.614 51.2638C209.554 50.018 210.457 48.7344 211.331 47.4224L257.457 37.5783C268.22 35.2847 277.347 28.0739 281.934 18.0409L281.925 18.0504ZM141 71.0182C135.351 71.0182 129.861 70.3481 124.588 69.0928L141 33.7463L157.412 69.0928C152.148 70.3481 146.649 71.0182 141 71.0182Z" fill="#161413"/>
</g>
<defs>
<clipPath id="clip0_337_4858">
<rect width="282" height="102" fill="white" transform="translate(0 0.268555)"/>
</clipPath>
</defs>
</svg>
