<svg width="283" height="103" viewBox="0 0 283 103" fill="none" xmlns="http://www.w3.org/2000/svg">
<g clip-path="url(#clip0_345_11125)">
<path d="M282.886 18.0504L282.961 17.8805L220.752 31.1602L203.446 34.8506C196.246 47.7339 185.135 58.1255 171.75 64.402L149.735 17.0027L141.961 0.268555L134.187 17.0027L112.172 64.4114C98.7775 58.1255 87.6761 47.7339 80.4757 34.8506L63.1797 31.1602L0.96106 17.8805L1.04566 18.0692C5.64226 28.0927 14.7603 35.2942 25.5139 37.5877L71.6397 47.4319C72.5045 48.7344 73.4163 50.018 74.3563 51.2733L25.2883 55.5866L25.4105 55.7282C32.6015 63.9773 43.3457 68.2151 54.2309 67.2524L86.5575 64.4114C87.6479 65.3553 88.7665 66.2802 89.9039 67.1769L63.8847 87.5919L64.0163 87.6675C71.8747 92.2734 81.7541 91.5277 88.9263 85.9025L102.415 75.3221C103.665 75.9828 104.934 76.6246 106.222 77.2287L94.9705 101.457L95.1021 101.504C102.782 103.958 111.091 100.239 114.494 92.8963L119.495 82.1272C126.648 84.0998 134.187 85.1569 141.961 85.1569C149.735 85.1569 157.283 84.0998 164.436 82.1272L169.437 92.8963C172.84 100.23 181.15 103.958 188.829 101.504L188.961 101.457L177.709 77.2287C178.997 76.6246 180.266 75.9828 181.526 75.3127L195.015 85.8931C202.187 91.5183 212.066 92.2639 219.925 87.658L220.056 87.5825L194.028 67.1674C195.165 66.2802 196.284 65.3553 197.374 64.402L229.71 67.2429C240.586 68.1962 251.321 63.9678 258.521 55.7282L258.653 55.5771L209.575 51.2638C210.515 50.018 211.418 48.7344 212.292 47.4224L258.418 37.5783C269.181 35.2847 278.308 28.0739 282.895 18.0409L282.886 18.0504ZM141.961 71.0182C136.312 71.0182 130.822 70.3481 125.549 69.0928L141.961 33.7463L158.373 69.0928C153.109 70.3481 147.61 71.0182 141.961 71.0182Z" fill="white"/>
</g>
<defs>
<clipPath id="clip0_345_11125">
<rect width="282" height="102" fill="white" transform="translate(0.96106 0.268555)"/>
</clipPath>
</defs>
</svg>
