<svg width="189" height="15" viewBox="0 0 189 15" fill="none" xmlns="http://www.w3.org/2000/svg">
<g clip-path="url(#clip0_345_11127)">
<path d="M0.744629 14.14L6.81076 0.640625H8.7409L14.6378 14.14H11.6048L8.77223 7.05144C8.1581 5.52506 7.70063 4.31616 7.39356 3.43696H8.08916C7.86983 4.0353 7.63796 4.63365 7.39983 5.2381C7.1617 5.84254 6.91103 6.44699 6.6541 7.05755L3.65863 14.1461H0.744629V14.14ZM4.34796 11.2215V8.99911H11.0032V11.2215H4.34796Z" fill="#D1B97D"/>
<path d="M23.3359 14.14V0.640625H25.2097L33.9955 10.4705L33.2811 10.7026L33.2059 0.640625H35.9257V14.14H34.0707L25.2849 4.32837L25.9993 4.07804L26.0557 14.14H23.3359Z" fill="#D1B97D"/>
<path d="M52.5825 14.3901C51.2728 14.3901 50.0633 14.0849 48.9604 13.4743C47.8575 12.8638 46.9864 12.0273 46.3535 10.9649C45.7143 9.90257 45.3947 8.7242 45.3947 7.43593C45.3947 6.14766 45.7205 4.87771 46.366 3.80924C47.0177 2.74077 47.9013 1.90431 49.0231 1.29376C50.1448 0.683207 51.3793 0.37793 52.7267 0.37793C53.5225 0.37793 54.2745 0.481724 54.9764 0.689312C55.6783 0.8969 56.3363 1.22049 56.9504 1.64788C57.5645 2.07527 58.1411 2.62477 58.68 3.29638L56.4177 4.7495C55.9289 4.10231 55.3775 3.62608 54.7759 3.30859C54.168 2.9911 53.4975 2.83236 52.7643 2.83236C51.9057 2.83236 51.1287 3.03384 50.4331 3.4307C49.7375 3.83366 49.186 4.38316 48.7912 5.0853C48.3901 5.78744 48.1959 6.56895 48.1959 7.42983C48.1959 8.29071 48.4027 9.06611 48.81 9.76825C49.2173 10.4643 49.7688 11.0138 50.4644 11.4045C51.1537 11.8014 51.8807 11.9968 52.6389 11.9968C53.2907 11.9968 53.8797 11.8686 54.4124 11.6121C54.9451 11.3557 55.3712 11.0077 55.6971 10.5742C56.0229 10.1407 56.2172 9.65224 56.2736 9.11496V9.09664H53.1152V6.85591H59.3255V7.37488C59.3255 8.78526 59.0497 10.0125 58.4983 11.0626C57.9468 12.1128 57.1635 12.9248 56.1545 13.5048C55.1456 14.0849 53.9549 14.3718 52.5825 14.3718V14.3901Z" fill="#D1B97D"/>
<path d="M68.738 14.14V0.640625H76.7656V2.96684H71.4702V5.73875H76.5588V8.02833H71.4702V11.8077H76.7969V14.1339H68.7317L68.738 14.14Z" fill="#D1B97D"/>
<path d="M86.3787 14.14V0.640625H89.1172V11.6489H93.2344V14.14H86.3787Z" fill="#D1B97D"/>
<path d="M106.407 14.3909C105.624 14.3909 104.909 14.2688 104.264 14.0245C103.618 13.7803 103.067 13.4384 102.603 13.0049C102.139 12.5714 101.77 12.0647 101.5 11.4907L103.393 10.1109C103.612 10.5383 103.875 10.9046 104.176 11.1916C104.477 11.4785 104.809 11.7044 105.166 11.8449C105.53 11.9853 105.906 12.0586 106.294 12.0586C106.683 12.0586 107.002 11.9914 107.278 11.851C107.554 11.7166 107.767 11.5213 107.911 11.2709C108.055 11.0206 108.13 10.7275 108.13 10.3917C108.13 10.0559 108.068 9.7934 107.949 9.56139C107.823 9.32938 107.616 9.10347 107.322 8.88368C107.027 8.66388 106.607 8.43187 106.056 8.19375C106.006 8.18154 105.956 8.16322 105.912 8.1388C105.862 8.11438 105.805 8.08996 105.749 8.06553C104.928 7.71752 104.264 7.37561 103.756 7.0337C103.249 6.69179 102.854 6.28882 102.572 5.8187C102.29 5.34857 102.152 4.78075 102.152 4.12746C102.152 3.42532 102.34 2.78424 102.71 2.21032C103.086 1.6364 103.599 1.1907 104.264 0.867103C104.928 0.54351 105.667 0.384766 106.488 0.384766C107.422 0.384766 108.237 0.567932 108.932 0.928159C109.628 1.29449 110.211 1.80736 110.681 2.47897L108.92 4.01756C108.613 3.59017 108.274 3.26047 107.898 3.04068C107.522 2.82088 107.09 2.71098 106.601 2.71098C106.282 2.71098 106 2.77203 105.749 2.88804C105.498 3.01015 105.304 3.16279 105.16 3.36427C105.022 3.55965 104.947 3.78555 104.947 4.03588C104.947 4.2862 105.016 4.506 105.147 4.68917C105.279 4.87234 105.505 5.06161 105.818 5.25088C106.131 5.44015 106.582 5.65385 107.171 5.89807C107.209 5.92249 107.247 5.94081 107.284 5.95912C107.322 5.97744 107.366 5.98965 107.416 6.00186C108.262 6.33767 108.939 6.69789 109.453 7.09475C109.966 7.49161 110.349 7.94953 110.593 8.4746C110.837 8.99968 110.963 9.62855 110.963 10.3551C110.963 11.1549 110.769 11.8571 110.374 12.4676C109.979 13.0782 109.44 13.5483 108.757 13.8841C108.068 14.2199 107.291 14.3848 106.426 14.3848L106.407 14.3909Z" fill="#D1B97D"/>
<path d="M120.162 14.14V0.640625H122.901V5.74486H128.196V0.640625H130.935V14.14H128.196V8.21149H122.901V14.14H120.162Z" fill="#D1B97D"/>
<path d="M139.627 14.14L145.693 0.640625H147.623L153.52 14.14H150.487L147.654 7.05144C147.04 5.52506 146.583 4.31616 146.275 3.43696H146.971C146.752 4.0353 146.52 4.63365 146.282 5.2381C146.044 5.84254 145.793 6.44699 145.536 7.05755L142.541 14.1461H139.62L139.627 14.14ZM143.23 11.2215V8.99911H149.885V11.2215H143.23Z" fill="#D1B97D"/>
<path d="M162.218 14.14V0.640625H165.527C166.617 0.640625 167.563 0.787158 168.372 1.08022C169.18 1.37329 169.813 1.8251 170.264 2.44176C170.715 3.05842 170.941 3.83382 170.941 4.78018C170.941 5.43958 170.803 6.03182 170.527 6.563C170.252 7.09418 169.832 7.5582 169.268 7.94896C168.704 8.33971 168.014 8.6572 167.194 8.89531H164.95V14.14H162.212H162.218ZM168.835 14.14L164.756 7.94285L167.256 7.49715L172.144 14.14H168.835ZM165.564 6.7828C166.141 6.7828 166.623 6.71564 167.018 6.57521C167.413 6.44089 167.707 6.22109 167.92 5.92802C168.127 5.63496 168.234 5.26862 168.234 4.82902C168.234 4.38943 168.134 4.04752 167.939 3.77277C167.745 3.49802 167.457 3.29653 167.074 3.16221C166.692 3.034 166.216 2.96684 165.639 2.96684H164.963V6.7828H165.57H165.564Z" fill="#D1B97D"/>
<path d="M180.679 14.14V0.640625H188.707V2.96684H183.412V5.73875H188.5V8.02833H183.412V11.8077H188.738V14.1339H180.673L180.679 14.14Z" fill="#D1B97D"/>
</g>
<defs>
<clipPath id="clip0_345_11127">
<rect width="188" height="14" fill="white" transform="translate(0.744629 0.390625)"/>
</clipPath>
</defs>
</svg>
