<svg width="308" height="112" viewBox="0 0 308 112" fill="none" xmlns="http://www.w3.org/2000/svg">
<path d="M305.919 21.8299L306 21.65L238.938 35.7125L220.282 39.6204C212.52 53.2631 200.542 64.2672 186.113 70.9136L162.38 20.7205L154 3L145.62 20.7205L121.887 70.9236C107.447 64.2672 95.48 53.2631 87.7179 39.6204L69.0725 35.7125L2 21.65L2.0912 21.8499C7.0464 32.4642 16.8757 40.0901 28.4683 42.5188L78.1925 52.9432C79.1248 54.3225 80.1077 55.6818 81.1211 57.0111L28.2251 61.5786L28.3568 61.7285C36.1088 70.4639 47.6912 74.9515 59.4256 73.932L94.2741 70.9236C95.4496 71.9231 96.6555 72.9026 97.8816 73.852L69.8325 95.4705L69.9744 95.5504C78.4459 100.428 89.096 99.6382 96.8277 93.6814L111.369 82.4774C112.717 83.177 114.085 83.8567 115.473 84.4963L103.343 110.153L103.485 110.203C111.764 112.801 120.722 108.863 124.39 101.087L129.781 89.6836C137.493 91.7724 145.62 92.8918 154 92.8918C162.38 92.8918 170.517 91.7724 178.229 89.6836L183.62 101.087C187.288 108.853 196.246 112.801 204.525 110.203L204.667 110.153L192.537 84.4963C193.925 83.8567 195.293 83.177 196.651 82.4674L211.193 93.6714C218.924 99.6282 229.574 100.418 238.046 95.5404L238.188 95.4605L210.129 73.842C211.355 72.9026 212.561 71.9231 213.736 70.9136L248.595 73.922C260.319 74.9315 271.891 70.4539 279.653 61.7285L279.795 61.5686L226.889 57.0011C227.902 55.6818 228.875 54.3225 229.818 52.9333L279.542 42.5088C291.145 40.0801 300.984 32.4442 305.929 21.8199L305.919 21.8299ZM154 77.9199C147.91 77.9199 141.992 77.2102 136.307 75.881L154 38.451L171.693 75.881C166.018 77.2102 160.09 77.9199 154 77.9199Z" stroke="#D1B97D" stroke-width="2"/>
</svg>
